<?xml version="1.0" encoding="UTF-8" standalone="no"?>
<!DOCTYPE svg PUBLIC "-//W3C//DTD SVG 1.1//EN"
 "http://www.w3.org/Graphics/SVG/1.1/DTD/svg11.dtd">
<!-- Generated by graphviz version 15.0.0 (20260523.1842)
 -->
<!-- Title: n_to_one Pages: 1 -->
<svg width="334pt" height="227pt"
 viewBox="0.00 0.00 334.00 227.00" xmlns="http://www.w3.org/2000/svg" xmlns:xlink="http://www.w3.org/1999/xlink">
<g id="graph0" class="graph" transform="scale(1 1) rotate(0) translate(4 223)">
<title>n_to_one</title>
<!-- payload -->
<g id="node1" class="node">
<title>payload</title>
<path fill="#eff6ff" stroke="#2563eb" stroke-width="1.3" d="M79.92,-219C79.92,-219 12,-219 12,-219 6,-219 0,-213 0,-207 0,-207 0,-195 0,-195 0,-189 6,-183 12,-183 12,-183 79.92,-183 79.92,-183 85.92,-183 91.92,-189 91.92,-195 91.92,-195 91.92,-207 91.92,-207 91.92,-213 85.92,-219 79.92,-219"/>
<text xml:space="preserve" text-anchor="start" x="25.33" y="-201.55" font-family="Helvetica,sans-Serif" font-weight="bold" font-size="11.00">payload</text>
<text xml:space="preserve" text-anchor="start" x="12.96" y="-192.45" font-family="Helvetica,sans-Serif" font-size="9.00" fill="#475569">order · structural</text>
</g>
<!-- out -->
<g id="node5" class="node">
<title>out</title>
<path fill="#fffbeb" stroke="#f59e0b" stroke-width="1.6" d="M314.09,-127C314.09,-127 229.67,-127 229.67,-127 223.67,-127 217.67,-121 217.67,-115 217.67,-115 217.67,-103 217.67,-103 217.67,-97 223.67,-91 229.67,-91 229.67,-91 314.09,-91 314.09,-91 320.09,-91 326.09,-97 326.09,-103 326.09,-103 326.09,-115 326.09,-115 326.09,-121 320.09,-127 314.09,-127"/>
<text xml:space="preserve" text-anchor="start" x="230.63" y="-109.55" font-family="Helvetica,sans-Serif" font-weight="bold" font-size="11.00">Output contract</text>
<text xml:space="preserve" text-anchor="start" x="241.88" y="-100.45" font-family="Helvetica,sans-Serif" font-size="9.00" fill="#92400e">the fixed target</text>
</g>
<!-- payload&#45;&gt;out -->
<g id="edge1" class="edge">
<title>payload&#45;&gt;out</title>
<path fill="none" stroke="#2563eb" stroke-width="1.3" d="M92.27,-182.38C127.52,-167.9 176.61,-147.73 214.41,-132.2"/>
<polygon fill="#2563eb" stroke="#2563eb" stroke-width="1.3" points="215.51,-135.53 223.43,-128.5 212.85,-129.06 215.51,-135.53"/>
<text xml:space="preserve" text-anchor="middle" x="154.79" y="-167.15" font-family="Helvetica,sans-Serif" font-size="9.00">primary</text>
</g>
<!-- chain -->
<g id="node2" class="node">
<title>chain</title>
<path fill="#eff6ff" stroke="#60a5fa" stroke-width="1.3" d="M67.92,-158C67.92,-158 24,-158 24,-158 18,-158 12,-152 12,-146 12,-146 12,-134 12,-134 12,-128 18,-122 24,-122 24,-122 67.92,-122 67.92,-122 73.92,-122 79.92,-128 79.92,-134 79.92,-134 79.92,-146 79.92,-146 79.92,-152 73.92,-158 67.92,-158"/>
<text xml:space="preserve" text-anchor="start" x="24.96" y="-140.55" font-family="Helvetica,sans-Serif" font-weight="bold" font-size="11.00">chain[1]</text>
<text xml:space="preserve" text-anchor="start" x="26.83" y="-131.45" font-family="Helvetica,sans-Serif" font-size="9.00" fill="#475569">prior step</text>
</g>
<!-- chain&#45;&gt;out -->
<g id="edge2" class="edge">
<title>chain&#45;&gt;out</title>
<path fill="none" stroke="#60a5fa" stroke-width="1.3" d="M80.48,-135.36C113.35,-130.81 164.35,-123.75 205.29,-118.08"/>
<polygon fill="#60a5fa" stroke="#60a5fa" stroke-width="1.3" points="205.72,-121.55 215.15,-116.72 204.76,-114.62 205.72,-121.55"/>
<text xml:space="preserve" text-anchor="middle" x="154.79" y="-129.39" font-family="Helvetica,sans-Serif" font-size="9.00">enrichment</text>
</g>
<!-- lookup -->
<g id="node3" class="node">
<title>lookup</title>
<path fill="#ecfdf5" stroke="#059669" stroke-width="1.3" d="M67.17,-97C67.17,-97 24.75,-97 24.75,-97 18.75,-97 12.75,-91 12.75,-85 12.75,-85 12.75,-73 12.75,-73 12.75,-67 18.75,-61 24.75,-61 24.75,-61 67.17,-61 67.17,-61 73.17,-61 79.17,-67 79.17,-73 79.17,-73 79.17,-85 79.17,-85 79.17,-91 73.17,-97 67.17,-97"/>
<text xml:space="preserve" text-anchor="start" x="27.96" y="-79.55" font-family="Helvetica,sans-Serif" font-weight="bold" font-size="11.00">lookup</text>
<text xml:space="preserve" text-anchor="start" x="25.71" y="-70.45" font-family="Helvetica,sans-Serif" font-size="9.00" fill="#475569">catalogue</text>
</g>
<!-- lookup&#45;&gt;out -->
<g id="edge3" class="edge">
<title>lookup&#45;&gt;out</title>
<path fill="none" stroke="#059669" stroke-width="1.3" stroke-dasharray="5,2" d="M79.52,-83.36C112.38,-87.76 164.04,-94.69 205.4,-100.23"/>
<polygon fill="#059669" stroke="#059669" stroke-width="1.3" points="204.72,-103.67 215.1,-101.53 205.65,-96.73 204.72,-103.67"/>
<text xml:space="preserve" text-anchor="middle" x="154.79" y="-97" font-family="Helvetica,sans-Serif" font-size="9.00">join</text>
</g>
<!-- config -->
<g id="node4" class="node">
<title>config</title>
<path fill="#f1f5f9" stroke="#6b7280" stroke-width="1.3" d="M77.67,-36C77.67,-36 14.25,-36 14.25,-36 8.25,-36 2.25,-30 2.25,-24 2.25,-24 2.25,-12 2.25,-12 2.25,-6 8.25,0 14.25,0 14.25,0 77.67,0 77.67,0 83.67,0 89.67,-6 89.67,-12 89.67,-12 89.67,-24 89.67,-24 89.67,-30 83.67,-36 77.67,-36"/>
<text xml:space="preserve" text-anchor="start" x="15.21" y="-18.55" font-family="Helvetica,sans-Serif" font-weight="bold" font-size="11.00">config / nvp</text>
<text xml:space="preserve" text-anchor="start" x="26.46" y="-9.45" font-family="Helvetica,sans-Serif" font-size="9.00" fill="#475569">constants</text>
</g>
<!-- config&#45;&gt;out -->
<g id="edge4" class="edge">
<title>config&#45;&gt;out</title>
<path fill="none" stroke="#6b7280" stroke-width="1.3" stroke-dasharray="1,5" d="M90.13,-35.55C125.3,-49.84 175.24,-70.13 213.72,-85.77"/>
<polygon fill="#6b7280" stroke="#6b7280" stroke-width="1.3" points="212.35,-88.99 222.93,-89.51 214.99,-82.51 212.35,-88.99"/>
<text xml:space="preserve" text-anchor="middle" x="154.79" y="-70.15" font-family="Helvetica,sans-Serif" font-size="9.00">binding</text>
</g>
</g>
</svg>
