<?xml version="1.0" encoding="UTF-8" standalone="no"?>
<!DOCTYPE svg PUBLIC "-//W3C//DTD SVG 1.1//EN"
 "http://www.w3.org/Graphics/SVG/1.1/DTD/svg11.dtd">
<!-- Generated by graphviz version 15.0.0 (20260523.1842)
 -->
<!-- Title: op_filter Pages: 1 -->
<svg width="313pt" height="257pt"
 viewBox="0.00 0.00 313.00 257.00" xmlns="http://www.w3.org/2000/svg" xmlns:xlink="http://www.w3.org/1999/xlink">
<g id="graph0" class="graph" transform="scale(1 1) rotate(0) translate(4 253)">
<title>op_filter</title>
<g id="clust1" class="cluster">
<title>cluster_src</title>
<path fill="none" stroke="#cbd5e1" d="M20,-8C20,-8 66,-8 66,-8 72,-8 78,-14 78,-20 78,-20 78,-229 78,-229 78,-235 72,-241 66,-241 66,-241 20,-241 20,-241 14,-241 8,-235 8,-229 8,-229 8,-20 8,-20 8,-14 14,-8 20,-8"/>
<text xml:space="preserve" text-anchor="middle" x="43" y="-227.5" font-family="Helvetica,sans-Serif" font-size="10.00" fill="#64748b">source</text>
</g>
<g id="clust2" class="cluster">
<title>cluster_tgt</title>
<path fill="none" stroke="#cbd5e1" d="M231.5,-8C231.5,-8 293.25,-8 293.25,-8 299.25,-8 305.25,-14 305.25,-20 305.25,-20 305.25,-121 305.25,-121 305.25,-127 299.25,-133 293.25,-133 293.25,-133 231.5,-133 231.5,-133 225.5,-133 219.5,-127 219.5,-121 219.5,-121 219.5,-20 219.5,-20 219.5,-14 225.5,-8 231.5,-8"/>
<text xml:space="preserve" text-anchor="middle" x="262.38" y="-119.5" font-family="Helvetica,sans-Serif" font-size="10.00" fill="#64748b">target — pruned</text>
</g>
<!-- a1 -->
<g id="node1" class="node">
<title>a1</title>
<path fill="#eff6ff" stroke="#2563eb" stroke-width="1.1" d="M58,-52C58,-52 28,-52 28,-52 22,-52 16,-46 16,-40 16,-40 16,-28 16,-28 16,-22 22,-16 28,-16 28,-16 58,-16 58,-16 64,-16 70,-22 70,-28 70,-28 70,-40 70,-40 70,-46 64,-52 58,-52"/>
<text xml:space="preserve" text-anchor="middle" x="43" y="-30.88" font-family="Helvetica,sans-Serif" font-size="10.00">a ✓</text>
</g>
<!-- a2 -->
<g id="node5" class="node">
<title>a2</title>
<path fill="#fffbeb" stroke="#f59e0b" stroke-width="1.1" d="M276.88,-52C276.88,-52 246.88,-52 246.88,-52 240.88,-52 234.88,-46 234.88,-40 234.88,-40 234.88,-28 234.88,-28 234.88,-22 240.88,-16 246.88,-16 246.88,-16 276.88,-16 276.88,-16 282.88,-16 288.88,-22 288.88,-28 288.88,-28 288.88,-40 288.88,-40 288.88,-46 282.88,-52 276.88,-52"/>
<text xml:space="preserve" text-anchor="middle" x="261.88" y="-30.12" font-family="Helvetica,sans-Serif" font-size="10.00">a</text>
</g>
<!-- a1&#45;&gt;a2 -->
<g id="edge1" class="edge">
<title>a1&#45;&gt;a2</title>
<path fill="none" stroke="#1d4ed8" stroke-width="2" d="M78,-34C112.74,-34 167.19,-34 207.66,-34"/>
<polygon fill="#1d4ed8" stroke="#1d4ed8" stroke-width="2" points="207.47,-37.15 216.47,-34 207.47,-30.85 207.47,-37.15"/>
<text xml:space="preserve" text-anchor="middle" x="148.75" y="-44.95" font-family="Helvetica,sans-Serif" font-size="9.00" fill="#1d4ed8"> &#160;filter(p) &#160;</text>
<text xml:space="preserve" text-anchor="middle" x="148.75" y="-35.2" font-family="Helvetica,sans-Serif" font-size="9.00" fill="#1d4ed8"> &#160;prune by predicate &#160;</text>
</g>
<!-- b1 -->
<g id="node2" class="node">
<title>b1</title>
<path fill="#f1f5f9" stroke="#cbd5e1" stroke-width="1.1" stroke-dasharray="5,2" d="M58,-106C58,-106 28,-106 28,-106 22,-106 16,-100 16,-94 16,-94 16,-82 16,-82 16,-76 22,-70 28,-70 28,-70 58,-70 58,-70 64,-70 70,-76 70,-82 70,-82 70,-94 70,-94 70,-100 64,-106 58,-106"/>
<text xml:space="preserve" text-anchor="middle" x="43" y="-84.88" font-family="Helvetica,sans-Serif" font-size="10.00" fill="#94a3b8">b ✗</text>
</g>
<!-- c1 -->
<g id="node3" class="node">
<title>c1</title>
<path fill="#eff6ff" stroke="#2563eb" stroke-width="1.1" d="M58,-160C58,-160 28,-160 28,-160 22,-160 16,-154 16,-148 16,-148 16,-136 16,-136 16,-130 22,-124 28,-124 28,-124 58,-124 58,-124 64,-124 70,-130 70,-136 70,-136 70,-148 70,-148 70,-154 64,-160 58,-160"/>
<text xml:space="preserve" text-anchor="middle" x="43" y="-138.88" font-family="Helvetica,sans-Serif" font-size="10.00">c ✓</text>
</g>
<!-- d1 -->
<g id="node4" class="node">
<title>d1</title>
<path fill="#f1f5f9" stroke="#cbd5e1" stroke-width="1.1" stroke-dasharray="5,2" d="M58,-214C58,-214 28,-214 28,-214 22,-214 16,-208 16,-202 16,-202 16,-190 16,-190 16,-184 22,-178 28,-178 28,-178 58,-178 58,-178 64,-178 70,-184 70,-190 70,-190 70,-202 70,-202 70,-208 64,-214 58,-214"/>
<text xml:space="preserve" text-anchor="middle" x="43" y="-192.88" font-family="Helvetica,sans-Serif" font-size="10.00" fill="#94a3b8">d ✗</text>
</g>
<!-- c2 -->
<g id="node6" class="node">
<title>c2</title>
<path fill="#fffbeb" stroke="#f59e0b" stroke-width="1.1" d="M276.88,-106C276.88,-106 246.88,-106 246.88,-106 240.88,-106 234.88,-100 234.88,-94 234.88,-94 234.88,-82 234.88,-82 234.88,-76 240.88,-70 246.88,-70 246.88,-70 276.88,-70 276.88,-70 282.88,-70 288.88,-76 288.88,-82 288.88,-82 288.88,-94 288.88,-94 288.88,-100 282.88,-106 276.88,-106"/>
<text xml:space="preserve" text-anchor="middle" x="261.88" y="-84.12" font-family="Helvetica,sans-Serif" font-size="10.00">c</text>
</g>
</g>
</svg>
