<?xml version="1.0" encoding="UTF-8" standalone="no"?>
<!DOCTYPE svg PUBLIC "-//W3C//DTD SVG 1.1//EN"
 "http://www.w3.org/Graphics/SVG/1.1/DTD/svg11.dtd">
<!-- Generated by graphviz version 15.0.0 (20260523.1842)
 -->
<!-- Title: op_groupby Pages: 1 -->
<svg width="326pt" height="203pt"
 viewBox="0.00 0.00 326.00 203.00" xmlns="http://www.w3.org/2000/svg" xmlns:xlink="http://www.w3.org/1999/xlink">
<g id="graph0" class="graph" transform="scale(1 1) rotate(0) translate(4 199)">
<title>op_groupby</title>
<g id="clust1" class="cluster">
<title>cluster_src</title>
<path fill="none" stroke="#cbd5e1" d="M12,-8C12,-8 86.5,-8 86.5,-8 92.5,-8 98.5,-14 98.5,-20 98.5,-20 98.5,-175 98.5,-175 98.5,-181 92.5,-187 86.5,-187 86.5,-187 12,-187 12,-187 6,-187 0,-181 0,-175 0,-175 0,-20 0,-20 0,-14 6,-8 12,-8"/>
<text xml:space="preserve" text-anchor="middle" x="49.25" y="-173.5" font-family="Helvetica,sans-Serif" font-size="10.00" fill="#64748b">source — flat rows</text>
</g>
<g id="clust2" class="cluster">
<title>cluster_tgt</title>
<path fill="none" stroke="#cbd5e1" d="M236.25,-8C236.25,-8 303.25,-8 303.25,-8 309.25,-8 315.25,-14 315.25,-20 315.25,-20 315.25,-121 315.25,-121 315.25,-127 309.25,-133 303.25,-133 303.25,-133 236.25,-133 236.25,-133 230.25,-133 224.25,-127 224.25,-121 224.25,-121 224.25,-20 224.25,-20 224.25,-14 230.25,-8 236.25,-8"/>
<text xml:space="preserve" text-anchor="middle" x="269.75" y="-119.5" font-family="Helvetica,sans-Serif" font-size="10.00" fill="#64748b">target — grouped</text>
</g>
<!-- r1 -->
<g id="node1" class="node">
<title>r1</title>
<path fill="#eff6ff" stroke="#2563eb" stroke-width="1.1" d="M63.75,-52C63.75,-52 33.75,-52 33.75,-52 27.75,-52 21.75,-46 21.75,-40 21.75,-40 21.75,-28 21.75,-28 21.75,-22 27.75,-16 33.75,-16 33.75,-16 63.75,-16 63.75,-16 69.75,-16 75.75,-22 75.75,-28 75.75,-28 75.75,-40 75.75,-40 75.75,-46 69.75,-52 63.75,-52"/>
<text xml:space="preserve" text-anchor="middle" x="48.75" y="-35.75" font-family="Helvetica,sans-Serif" font-size="10.00">order</text>
<text xml:space="preserve" text-anchor="middle" x="48.75" y="-24.5" font-family="Helvetica,sans-Serif" font-size="10.00">cust: A</text>
</g>
<!-- gA -->
<g id="node4" class="node">
<title>gA</title>
<path fill="#fffbeb" stroke="#f59e0b" stroke-width="1.1" d="M289.51,-52C289.51,-52 248.99,-52 248.99,-52 242.99,-52 236.99,-46 236.99,-40 236.99,-40 236.99,-28 236.99,-28 236.99,-22 242.99,-16 248.99,-16 248.99,-16 289.51,-16 289.51,-16 295.51,-16 301.51,-22 301.51,-28 301.51,-28 301.51,-40 301.51,-40 301.51,-46 295.51,-52 289.51,-52"/>
<text xml:space="preserve" text-anchor="middle" x="269.25" y="-35.75" font-family="Helvetica,sans-Serif" font-size="10.00">A</text>
<text xml:space="preserve" text-anchor="middle" x="269.25" y="-24.5" font-family="Helvetica,sans-Serif" font-size="10.00">{ 2 orders }</text>
</g>
<!-- r1&#45;&gt;gA -->
<g id="edge1" class="edge">
<title>r1&#45;&gt;gA</title>
<path fill="none" stroke="#1d4ed8" stroke-width="2" d="M98.5,-34C132.22,-34 177.17,-34 212.34,-34"/>
<polygon fill="#1d4ed8" stroke="#1d4ed8" stroke-width="2" points="212.22,-37.15 221.22,-34 212.22,-30.85 212.22,-37.15"/>
<text xml:space="preserve" text-anchor="middle" x="161.38" y="-44.95" font-family="Helvetica,sans-Serif" font-size="9.00" fill="#1d4ed8"> &#160;groupBy(cust) &#160;</text>
<text xml:space="preserve" text-anchor="middle" x="161.38" y="-35.2" font-family="Helvetica,sans-Serif" font-size="9.00" fill="#1d4ed8"> &#160;contract by key &#160;</text>
</g>
<!-- r2 -->
<g id="node2" class="node">
<title>r2</title>
<path fill="#eff6ff" stroke="#2563eb" stroke-width="1.1" d="M63.75,-106C63.75,-106 33.75,-106 33.75,-106 27.75,-106 21.75,-100 21.75,-94 21.75,-94 21.75,-82 21.75,-82 21.75,-76 27.75,-70 33.75,-70 33.75,-70 63.75,-70 63.75,-70 69.75,-70 75.75,-76 75.75,-82 75.75,-82 75.75,-94 75.75,-94 75.75,-100 69.75,-106 63.75,-106"/>
<text xml:space="preserve" text-anchor="middle" x="48.75" y="-89.75" font-family="Helvetica,sans-Serif" font-size="10.00">order</text>
<text xml:space="preserve" text-anchor="middle" x="48.75" y="-78.5" font-family="Helvetica,sans-Serif" font-size="10.00">cust: A</text>
</g>
<!-- r3 -->
<g id="node3" class="node">
<title>r3</title>
<path fill="#eff6ff" stroke="#2563eb" stroke-width="1.1" d="M63.75,-160C63.75,-160 33.75,-160 33.75,-160 27.75,-160 21.75,-154 21.75,-148 21.75,-148 21.75,-136 21.75,-136 21.75,-130 27.75,-124 33.75,-124 33.75,-124 63.75,-124 63.75,-124 69.75,-124 75.75,-130 75.75,-136 75.75,-136 75.75,-148 75.75,-148 75.75,-154 69.75,-160 63.75,-160"/>
<text xml:space="preserve" text-anchor="middle" x="48.75" y="-143.75" font-family="Helvetica,sans-Serif" font-size="10.00">order</text>
<text xml:space="preserve" text-anchor="middle" x="48.75" y="-132.5" font-family="Helvetica,sans-Serif" font-size="10.00">cust: B</text>
</g>
<!-- gB -->
<g id="node5" class="node">
<title>gB</title>
<path fill="#fffbeb" stroke="#f59e0b" stroke-width="1.1" d="M286.89,-106C286.89,-106 251.61,-106 251.61,-106 245.61,-106 239.61,-100 239.61,-94 239.61,-94 239.61,-82 239.61,-82 239.61,-76 245.61,-70 251.61,-70 251.61,-70 286.89,-70 286.89,-70 292.89,-70 298.89,-76 298.89,-82 298.89,-82 298.89,-94 298.89,-94 298.89,-100 292.89,-106 286.89,-106"/>
<text xml:space="preserve" text-anchor="middle" x="269.25" y="-89.75" font-family="Helvetica,sans-Serif" font-size="10.00">B</text>
<text xml:space="preserve" text-anchor="middle" x="269.25" y="-78.5" font-family="Helvetica,sans-Serif" font-size="10.00">{ 1 order }</text>
</g>
</g>
</svg>
