<?xml version="1.0" encoding="UTF-8" standalone="no"?>
<!DOCTYPE svg PUBLIC "-//W3C//DTD SVG 1.1//EN"
 "http://www.w3.org/Graphics/SVG/1.1/DTD/svg11.dtd">
<!-- Generated by graphviz version 15.0.0 (20260523.1842)
 -->
<!-- Title: op_map Pages: 1 -->
<svg width="505pt" height="174pt"
 viewBox="0.00 0.00 505.00 174.00" xmlns="http://www.w3.org/2000/svg" xmlns:xlink="http://www.w3.org/1999/xlink">
<g id="graph0" class="graph" transform="scale(1 1) rotate(0) translate(4 170)">
<title>op_map</title>
<g id="clust1" class="cluster">
<title>cluster_src</title>
<path fill="none" stroke="#cbd5e1" d="M20,-87C20,-87 225.03,-87 225.03,-87 231.03,-87 237.03,-93 237.03,-99 237.03,-99 237.03,-146 237.03,-146 237.03,-152 231.03,-158 225.03,-158 225.03,-158 20,-158 20,-158 14,-158 8,-152 8,-146 8,-146 8,-99 8,-99 8,-93 14,-87 20,-87"/>
<text xml:space="preserve" text-anchor="middle" x="122.51" y="-144.5" font-family="Helvetica,sans-Serif" font-size="10.00" fill="#64748b">source</text>
</g>
<g id="clust2" class="cluster">
<title>cluster_tgt</title>
<path fill="none" stroke="#cbd5e1" d="M167.75,-8C167.75,-8 477.06,-8 477.06,-8 483.06,-8 489.06,-14 489.06,-20 489.06,-20 489.06,-67 489.06,-67 489.06,-73 483.06,-79 477.06,-79 477.06,-79 167.75,-79 167.75,-79 161.75,-79 155.75,-73 155.75,-67 155.75,-67 155.75,-20 155.75,-20 155.75,-14 161.75,-8 167.75,-8"/>
<text xml:space="preserve" text-anchor="middle" x="322.4" y="-65.5" font-family="Helvetica,sans-Serif" font-size="10.00" fill="#64748b">target</text>
</g>
<!-- s_items -->
<g id="node1" class="node">
<title>s_items</title>
<path fill="#eff6ff" stroke="#2563eb" stroke-width="1.1" d="M58,-131C58,-131 28,-131 28,-131 22,-131 16,-125 16,-119 16,-119 16,-107 16,-107 16,-101 22,-95 28,-95 28,-95 58,-95 58,-95 64,-95 70,-101 70,-107 70,-107 70,-119 70,-119 70,-125 64,-131 58,-131"/>
<text xml:space="preserve" text-anchor="middle" x="43" y="-109.12" font-family="Helvetica,sans-Serif" font-size="10.00">items[ ]</text>
</g>
<!-- s_el -->
<g id="node2" class="node">
<title>s_el</title>
<path fill="#f8fafc" stroke="#334155" stroke-width="1.1" d="M217.03,-131C217.03,-131 176.5,-131 176.5,-131 170.5,-131 164.5,-125 164.5,-119 164.5,-119 164.5,-107 164.5,-107 164.5,-101 170.5,-95 176.5,-95 176.5,-95 217.03,-95 217.03,-95 223.03,-95 229.03,-101 229.03,-107 229.03,-107 229.03,-119 229.03,-119 229.03,-125 223.03,-131 217.03,-131"/>
<text xml:space="preserve" text-anchor="middle" x="196.76" y="-114.75" font-family="Helvetica,sans-Serif" font-size="10.00">item</text>
<text xml:space="preserve" text-anchor="middle" x="196.76" y="-103.5" font-family="Helvetica,sans-Serif" font-size="10.00">{ sku, qty }</text>
</g>
<!-- s_items&#45;&gt;s_el -->
<g id="edge1" class="edge">
<title>s_items&#45;&gt;s_el</title>
<path fill="none" stroke="#94a3b8" d="M70.44,-113C93.96,-113 128.72,-113 155.67,-113"/>
<polygon fill="#94a3b8" stroke="#94a3b8" points="155.6,-115.45 162.6,-113 155.6,-110.55 155.6,-115.45"/>
<text xml:space="preserve" text-anchor="middle" x="116.88" y="-114.4" font-family="Helvetica,sans-Serif" font-size="8.00"> each </text>
</g>
<!-- t_el -->
<g id="node4" class="node">
<title>t_el</title>
<path fill="#f8fafc" stroke="#334155" stroke-width="1.1" d="M469.06,-52C469.06,-52 402.28,-52 402.28,-52 396.28,-52 390.28,-46 390.28,-40 390.28,-40 390.28,-28 390.28,-28 390.28,-22 396.28,-16 402.28,-16 402.28,-16 469.06,-16 469.06,-16 475.06,-16 481.06,-22 481.06,-28 481.06,-28 481.06,-40 481.06,-40 481.06,-46 475.06,-52 469.06,-52"/>
<text xml:space="preserve" text-anchor="middle" x="435.67" y="-35.75" font-family="Helvetica,sans-Serif" font-size="10.00">lineItem</text>
<text xml:space="preserve" text-anchor="middle" x="435.67" y="-24.5" font-family="Helvetica,sans-Serif" font-size="10.00">{ code, quantity }</text>
</g>
<!-- s_el&#45;&gt;t_el -->
<g id="edge3" class="edge">
<title>s_el&#45;&gt;t_el</title>
<path fill="none" stroke="#1d4ed8" stroke-width="2" d="M237.03,-99.91C251.79,-94.98 269.58,-89.05 288.36,-82.79"/>
<polygon fill="#1d4ed8" stroke="#1d4ed8" stroke-width="2" points="289.32,-85.79 296.86,-79.96 287.32,-79.82 289.32,-85.79"/>
<text xml:space="preserve" text-anchor="middle" x="310.03" y="-100.61" font-family="Helvetica,sans-Serif" font-size="9.00" fill="#1d4ed8"> &#160;map(item =&gt; …) &#160;</text>
<text xml:space="preserve" text-anchor="middle" x="310.03" y="-90.86" font-family="Helvetica,sans-Serif" font-size="9.00" fill="#1d4ed8"> &#160;per&#45;element rewrite &#160;</text>
</g>
<!-- t_items -->
<g id="node3" class="node">
<title>t_items</title>
<path fill="#fffbeb" stroke="#f59e0b" stroke-width="1.1" d="M217.78,-52C217.78,-52 175.75,-52 175.75,-52 169.75,-52 163.75,-46 163.75,-40 163.75,-40 163.75,-28 163.75,-28 163.75,-22 169.75,-16 175.75,-16 175.75,-16 217.78,-16 217.78,-16 223.78,-16 229.78,-22 229.78,-28 229.78,-28 229.78,-40 229.78,-40 229.78,-46 223.78,-52 217.78,-52"/>
<text xml:space="preserve" text-anchor="middle" x="196.76" y="-30.12" font-family="Helvetica,sans-Serif" font-size="10.00">lineItems[ ]</text>
</g>
<!-- t_items&#45;&gt;t_el -->
<g id="edge2" class="edge">
<title>t_items&#45;&gt;t_el</title>
<path fill="none" stroke="#94a3b8" d="M230.21,-34C269.22,-34 335.23,-34 381.68,-34"/>
<polygon fill="#94a3b8" stroke="#94a3b8" points="381.6,-36.45 388.6,-34 381.6,-31.55 381.6,-36.45"/>
<text xml:space="preserve" text-anchor="middle" x="310.03" y="-35.4" font-family="Helvetica,sans-Serif" font-size="8.00"> each </text>
</g>
</g>
</svg>
