<?xml version="1.0" encoding="UTF-8" standalone="no"?>
<!DOCTYPE svg PUBLIC "-//W3C//DTD SVG 1.1//EN"
 "http://www.w3.org/Graphics/SVG/1.1/DTD/svg11.dtd">
<!-- Generated by graphviz version 15.0.0 (20260523.1842)
 -->
<!-- Title: op_spread Pages: 1 -->
<svg width="441pt" height="390pt"
 viewBox="0.00 0.00 441.00 390.00" xmlns="http://www.w3.org/2000/svg" xmlns:xlink="http://www.w3.org/1999/xlink">
<g id="graph0" class="graph" transform="scale(1 1) rotate(0) translate(4 386)">
<title>op_spread</title>
<g id="clust1" class="cluster">
<title>cluster_src</title>
<path fill="none" stroke="#cbd5e1" d="M20,-195C20,-195 285.75,-195 285.75,-195 291.75,-195 297.75,-201 297.75,-207 297.75,-207 297.75,-362 297.75,-362 297.75,-368 291.75,-374 285.75,-374 285.75,-374 20,-374 20,-374 14,-374 8,-368 8,-362 8,-362 8,-207 8,-207 8,-201 14,-195 20,-195"/>
<text xml:space="preserve" text-anchor="middle" x="152.88" y="-360.5" font-family="Helvetica,sans-Serif" font-size="10.00" fill="#64748b">source</text>
</g>
<g id="clust2" class="cluster">
<title>cluster_tgt</title>
<path fill="none" stroke="#cbd5e1" d="M239.75,-8C239.75,-8 412.75,-8 412.75,-8 418.75,-8 424.75,-14 424.75,-20 424.75,-20 424.75,-175 424.75,-175 424.75,-181 418.75,-187 412.75,-187 412.75,-187 239.75,-187 239.75,-187 233.75,-187 227.75,-181 227.75,-175 227.75,-175 227.75,-20 227.75,-20 227.75,-14 233.75,-8 239.75,-8"/>
<text xml:space="preserve" text-anchor="middle" x="326.25" y="-173.5" font-family="Helvetica,sans-Serif" font-size="10.00" fill="#64748b">target (Invoice)</text>
</g>
<!-- s_addr -->
<g id="node1" class="node">
<title>s_addr</title>
<path fill="#eff6ff" stroke="#2563eb" stroke-width="1.1" d="M58,-266C58,-266 28,-266 28,-266 22,-266 16,-260 16,-254 16,-254 16,-242 16,-242 16,-236 22,-230 28,-230 28,-230 58,-230 58,-230 64,-230 70,-236 70,-242 70,-242 70,-254 70,-254 70,-260 64,-266 58,-266"/>
<text xml:space="preserve" text-anchor="middle" x="43" y="-244.12" font-family="Helvetica,sans-Serif" font-size="10.00">shipTo</text>
</g>
<!-- s_st -->
<g id="node2" class="node">
<title>s_st</title>
<path fill="#f8fafc" stroke="#334155" stroke-width="1.1" d="M277.75,-239C277.75,-239 247.75,-239 247.75,-239 241.75,-239 235.75,-233 235.75,-227 235.75,-227 235.75,-215 235.75,-215 235.75,-209 241.75,-203 247.75,-203 247.75,-203 277.75,-203 277.75,-203 283.75,-203 289.75,-209 289.75,-215 289.75,-215 289.75,-227 289.75,-227 289.75,-233 283.75,-239 277.75,-239"/>
<text xml:space="preserve" text-anchor="middle" x="262.75" y="-217.12" font-family="Helvetica,sans-Serif" font-size="10.00">street</text>
</g>
<!-- s_addr&#45;&gt;s_st -->
<g id="edge1" class="edge">
<title>s_addr&#45;&gt;s_st</title>
<path fill="none" stroke="#94a3b8" d="M70.27,-244.74C109.5,-239.88 183.46,-230.71 227.09,-225.3"/>
<polygon fill="#94a3b8" stroke="#94a3b8" points="227.24,-227.75 233.89,-224.45 226.64,-222.88 227.24,-227.75"/>
</g>
<!-- s_ci -->
<g id="node3" class="node">
<title>s_ci</title>
<path fill="#f8fafc" stroke="#334155" stroke-width="1.1" d="M277.75,-293C277.75,-293 247.75,-293 247.75,-293 241.75,-293 235.75,-287 235.75,-281 235.75,-281 235.75,-269 235.75,-269 235.75,-263 241.75,-257 247.75,-257 247.75,-257 277.75,-257 277.75,-257 283.75,-257 289.75,-263 289.75,-269 289.75,-269 289.75,-281 289.75,-281 289.75,-287 283.75,-293 277.75,-293"/>
<text xml:space="preserve" text-anchor="middle" x="262.75" y="-271.12" font-family="Helvetica,sans-Serif" font-size="10.00">city</text>
</g>
<!-- s_addr&#45;&gt;s_ci -->
<g id="edge2" class="edge">
<title>s_addr&#45;&gt;s_ci</title>
<path fill="none" stroke="#94a3b8" d="M70.27,-251.26C109.5,-256.12 183.46,-265.29 227.09,-270.7"/>
<polygon fill="#94a3b8" stroke="#94a3b8" points="226.64,-273.12 233.89,-271.55 227.24,-268.25 226.64,-273.12"/>
</g>
<!-- s_zip -->
<g id="node4" class="node">
<title>s_zip</title>
<path fill="#f8fafc" stroke="#334155" stroke-width="1.1" d="M277.75,-347C277.75,-347 247.75,-347 247.75,-347 241.75,-347 235.75,-341 235.75,-335 235.75,-335 235.75,-323 235.75,-323 235.75,-317 241.75,-311 247.75,-311 247.75,-311 277.75,-311 277.75,-311 283.75,-311 289.75,-317 289.75,-323 289.75,-323 289.75,-335 289.75,-335 289.75,-341 283.75,-347 277.75,-347"/>
<text xml:space="preserve" text-anchor="middle" x="262.75" y="-325.12" font-family="Helvetica,sans-Serif" font-size="10.00">zip</text>
</g>
<!-- s_addr&#45;&gt;s_zip -->
<g id="edge3" class="edge">
<title>s_addr&#45;&gt;s_zip</title>
<path fill="none" stroke="#94a3b8" d="M70.27,-257.77C109.67,-272.43 184.08,-300.11 227.63,-316.31"/>
<polygon fill="#94a3b8" stroke="#94a3b8" points="226.56,-318.52 233.97,-318.67 228.27,-313.93 226.56,-318.52"/>
</g>
<!-- t_addr -->
<g id="node5" class="node">
<title>t_addr</title>
<path fill="#fffbeb" stroke="#f59e0b" stroke-width="1.1" d="M277.75,-133C277.75,-133 247.75,-133 247.75,-133 241.75,-133 235.75,-127 235.75,-121 235.75,-121 235.75,-109 235.75,-109 235.75,-103 241.75,-97 247.75,-97 247.75,-97 277.75,-97 277.75,-97 283.75,-97 289.75,-103 289.75,-109 289.75,-109 289.75,-121 289.75,-121 289.75,-127 283.75,-133 277.75,-133"/>
<text xml:space="preserve" text-anchor="middle" x="262.75" y="-111.12" font-family="Helvetica,sans-Serif" font-size="10.00">shipTo</text>
</g>
<!-- s_addr&#45;&gt;t_addr -->
<g id="edge7" class="edge">
<title>s_addr&#45;&gt;t_addr</title>
<path fill="none" stroke="#1d4ed8" stroke-width="2" d="M122.84,-195C158.69,-172.95 197.55,-150.72 225.03,-135.31"/>
<polygon fill="#1d4ed8" stroke="#1d4ed8" stroke-width="2" points="219.2,-142.65 225.18,-135.22 215.87,-137.3 219.2,-142.65"/>
<text xml:space="preserve" text-anchor="middle" x="152.88" y="-216.45" font-family="Helvetica,sans-Serif" font-size="9.00" fill="#1d4ed8"> &#160;...spread &#160;</text>
<text xml:space="preserve" text-anchor="middle" x="152.88" y="-206.7" font-family="Helvetica,sans-Serif" font-size="9.00" fill="#1d4ed8"> &#160;cut&#45;and&#45;graft subtree &#160;</text>
</g>
<!-- t_st -->
<g id="node6" class="node">
<title>t_st</title>
<path fill="#f8fafc" stroke="#334155" stroke-width="1.1" d="M404.75,-52C404.75,-52 374.75,-52 374.75,-52 368.75,-52 362.75,-46 362.75,-40 362.75,-40 362.75,-28 362.75,-28 362.75,-22 368.75,-16 374.75,-16 374.75,-16 404.75,-16 404.75,-16 410.75,-16 416.75,-22 416.75,-28 416.75,-28 416.75,-40 416.75,-40 416.75,-46 410.75,-52 404.75,-52"/>
<text xml:space="preserve" text-anchor="middle" x="389.75" y="-30.12" font-family="Helvetica,sans-Serif" font-size="10.00">street</text>
</g>
<!-- t_addr&#45;&gt;t_st -->
<g id="edge4" class="edge">
<title>t_addr&#45;&gt;t_st</title>
<path fill="none" stroke="#94a3b8" d="M290.26,-97.82C309.23,-85.53 334.92,-68.88 355.31,-55.67"/>
<polygon fill="#94a3b8" stroke="#94a3b8" points="356.47,-57.84 361.01,-51.98 353.8,-53.73 356.47,-57.84"/>
</g>
<!-- t_ci -->
<g id="node7" class="node">
<title>t_ci</title>
<path fill="#f8fafc" stroke="#334155" stroke-width="1.1" d="M404.75,-106C404.75,-106 374.75,-106 374.75,-106 368.75,-106 362.75,-100 362.75,-94 362.75,-94 362.75,-82 362.75,-82 362.75,-76 368.75,-70 374.75,-70 374.75,-70 404.75,-70 404.75,-70 410.75,-70 416.75,-76 416.75,-82 416.75,-82 416.75,-94 416.75,-94 416.75,-100 410.75,-106 404.75,-106"/>
<text xml:space="preserve" text-anchor="middle" x="389.75" y="-84.12" font-family="Helvetica,sans-Serif" font-size="10.00">city</text>
</g>
<!-- t_addr&#45;&gt;t_ci -->
<g id="edge5" class="edge">
<title>t_addr&#45;&gt;t_ci</title>
<path fill="none" stroke="#94a3b8" d="M290.26,-109.27C308.82,-105.26 333.81,-99.87 353.97,-95.51"/>
<polygon fill="#94a3b8" stroke="#94a3b8" points="354.47,-97.91 360.8,-94.04 353.44,-93.12 354.47,-97.91"/>
</g>
<!-- t_zip -->
<g id="node8" class="node">
<title>t_zip</title>
<path fill="#f8fafc" stroke="#334155" stroke-width="1.1" d="M404.75,-160C404.75,-160 374.75,-160 374.75,-160 368.75,-160 362.75,-154 362.75,-148 362.75,-148 362.75,-136 362.75,-136 362.75,-130 368.75,-124 374.75,-124 374.75,-124 404.75,-124 404.75,-124 410.75,-124 416.75,-130 416.75,-136 416.75,-136 416.75,-148 416.75,-148 416.75,-154 410.75,-160 404.75,-160"/>
<text xml:space="preserve" text-anchor="middle" x="389.75" y="-138.12" font-family="Helvetica,sans-Serif" font-size="10.00">zip</text>
</g>
<!-- t_addr&#45;&gt;t_zip -->
<g id="edge6" class="edge">
<title>t_addr&#45;&gt;t_zip</title>
<path fill="none" stroke="#94a3b8" d="M290.26,-120.73C308.82,-124.74 333.81,-130.13 353.97,-134.49"/>
<polygon fill="#94a3b8" stroke="#94a3b8" points="353.44,-136.88 360.8,-135.96 354.47,-132.09 353.44,-136.88"/>
</g>
</g>
</svg>
