<?xml version="1.0" encoding="UTF-8" standalone="no"?>
<!DOCTYPE svg PUBLIC "-//W3C//DTD SVG 1.1//EN"
 "http://www.w3.org/Graphics/SVG/1.1/DTD/svg11.dtd">
<!-- Generated by graphviz version 15.0.0 (20260523.1842)
 -->
<!-- Title: open_m_context Pages: 1 -->
<svg width="746pt" height="434pt"
 viewBox="0.00 0.00 746.00 434.00" xmlns="http://www.w3.org/2000/svg" xmlns:xlink="http://www.w3.org/1999/xlink">
<g id="graph0" class="graph" transform="scale(1 1) rotate(0) translate(4 430)">
<title>open_m_context</title>
<g id="clust1" class="cluster">
<title>cluster_struct</title>
<path fill="none" stroke="#93c5fd" d="M12,-295C12,-295 235,-295 235,-295 241,-295 247,-301 247,-307 247,-307 247,-406 247,-406 247,-412 241,-418 235,-418 235,-418 12,-418 12,-418 6,-418 0,-412 0,-406 0,-406 0,-307 0,-307 0,-301 6,-295 12,-295"/>
<text xml:space="preserve" text-anchor="middle" x="123.5" y="-405.45" font-family="Helvetica,sans-Serif" font-size="9.00" fill="#1e3a8a">structural inputs — schema&#45;bearing → matching pipeline</text>
</g>
<g id="clust2" class="cluster">
<title>cluster_bind</title>
<path fill="none" stroke="#cbd5e1" d="M42,-8C42,-8 205,-8 205,-8 211,-8 217,-14 217,-20 217,-20 217,-275 217,-275 217,-281 211,-287 205,-287 205,-287 42,-287 42,-287 36,-287 30,-281 30,-275 30,-275 30,-20 30,-20 30,-14 36,-8 42,-8"/>
<text xml:space="preserve" text-anchor="middle" x="123.5" y="-274.45" font-family="Helvetica,sans-Serif" font-size="9.00" fill="#374151">binding inputs — name–value → bindings</text>
</g>
<!-- payload -->
<g id="node1" class="node">
<title>payload</title>
<path fill="#eff6ff" stroke="#2563eb" stroke-width="1.2" d="M187.02,-391C187.02,-391 58.98,-391 58.98,-391 52.98,-391 46.98,-385 46.98,-379 46.98,-379 46.98,-367 46.98,-367 46.98,-361 52.98,-355 58.98,-355 58.98,-355 187.02,-355 187.02,-355 193.02,-355 199.02,-361 199.02,-367 199.02,-367 199.02,-379 199.02,-379 199.02,-385 193.02,-391 187.02,-391"/>
<text xml:space="preserve" text-anchor="start" x="102" y="-373.5" font-family="Helvetica,sans-Serif" font-weight="bold" font-size="10.00">$payload</text>
<text xml:space="preserve" text-anchor="start" x="58.5" y="-365.4" font-family="Helvetica,sans-Serif" font-size="8.00" fill="#475569">current message payload · in MPPM</text>
</g>
<!-- mapping -->
<g id="node8" class="node">
<title>mapping</title>
<path fill="#f8fafc" stroke="#334155" stroke-width="1.6" d="M460.79,-208.76C460.79,-208.76 332,-208.76 332,-208.76 326,-208.76 320,-202.76 320,-196.76 320,-196.76 320,-183.24 320,-183.24 320,-177.24 326,-171.24 332,-171.24 332,-171.24 460.79,-171.24 460.79,-171.24 466.79,-171.24 472.79,-177.24 472.79,-183.24 472.79,-183.24 472.79,-196.76 472.79,-196.76 472.79,-202.76 466.79,-208.76 460.79,-208.76"/>
<text xml:space="preserve" text-anchor="start" x="361.14" y="-194.5" font-family="Helvetica,sans-Serif" font-weight="bold" font-size="10.00">UTLX mapping</text>
<text xml:space="preserve" text-anchor="start" x="349.89" y="-186.4" font-family="Helvetica,sans-Serif" font-size="8.00" fill="#475569">UTLXe · JVM · stdio&#45;proto</text>
<text xml:space="preserve" text-anchor="start" x="331.52" y="-178.4" font-family="Helvetica,sans-Serif" font-size="8.00" fill="#475569">compiled once, cached per message</text>
</g>
<!-- payload&#45;&gt;mapping -->
<g id="edge1" class="edge">
<title>payload&#45;&gt;mapping</title>
<path fill="none" stroke="#2563eb" stroke-width="1.5" d="M199.45,-364.54C215.81,-360.7 232.53,-355.11 247,-347 304.48,-314.77 352.97,-252.82 377.72,-217.13"/>
<polygon fill="#2563eb" stroke="#2563eb" stroke-width="1.5" points="379.72,-218.55 381.65,-211.39 375.68,-215.79 379.72,-218.55"/>
</g>
<!-- stepwin -->
<g id="node2" class="node">
<title>stepwin</title>
<path fill="#eff6ff" stroke="#2563eb" stroke-width="1.2" d="M198.64,-339C198.64,-339 47.36,-339 47.36,-339 41.36,-339 35.36,-333 35.36,-327 35.36,-327 35.36,-315 35.36,-315 35.36,-309 41.36,-303 47.36,-303 47.36,-303 198.64,-303 198.64,-303 204.64,-303 210.64,-309 210.64,-315 210.64,-315 210.64,-327 210.64,-327 210.64,-333 204.64,-339 198.64,-339"/>
<text xml:space="preserve" text-anchor="start" x="90" y="-321.5" font-family="Helvetica,sans-Serif" font-weight="bold" font-size="10.00">$step_window</text>
<text xml:space="preserve" text-anchor="start" x="46.88" y="-313.4" font-family="Helvetica,sans-Serif" font-size="8.00" fill="#475569">upstream step payloads (last N) · in MPPM</text>
</g>
<!-- stepwin&#45;&gt;mapping -->
<g id="edge2" class="edge">
<title>stepwin&#45;&gt;mapping</title>
<path fill="none" stroke="#2563eb" stroke-width="1.5" d="M211,-303.93C223.32,-300.33 235.65,-296.05 247,-291 291.63,-271.16 337.23,-237.76 365.89,-214.84"/>
<polygon fill="#2563eb" stroke="#2563eb" stroke-width="1.5" points="367.13,-216.98 371.03,-210.68 364.05,-213.17 367.13,-216.98"/>
</g>
<!-- vars -->
<g id="node3" class="node">
<title>vars</title>
<path fill="#f1f5f9" stroke="#6b7280" stroke-width="1.2" d="M172.39,-260C172.39,-260 73.61,-260 73.61,-260 67.61,-260 61.61,-254 61.61,-248 61.61,-248 61.61,-236 61.61,-236 61.61,-230 67.61,-224 73.61,-224 73.61,-224 172.39,-224 172.39,-224 178.39,-224 184.39,-230 184.39,-236 184.39,-236 184.39,-248 184.39,-248 184.39,-254 178.39,-260 172.39,-260"/>
<text xml:space="preserve" text-anchor="start" x="110.62" y="-242.5" font-family="Helvetica,sans-Serif" font-weight="bold" font-size="10.00">$vars</text>
<text xml:space="preserve" text-anchor="start" x="73.12" y="-234.4" font-family="Helvetica,sans-Serif" font-size="8.00" fill="#475569">pipeline variables · in MPPM</text>
</g>
<!-- vars&#45;&gt;mapping -->
<g id="edge3" class="edge">
<title>vars&#45;&gt;mapping</title>
<path fill="none" stroke="#6b7280" stroke-width="1.1" stroke-dasharray="5,2" d="M184.91,-230.33C222.12,-223.2 270.24,-213.98 311.08,-206.16"/>
<polygon fill="#6b7280" stroke="#6b7280" stroke-width="1.1" points="311.36,-208.6 317.77,-204.87 310.44,-203.78 311.36,-208.6"/>
</g>
<!-- headers -->
<g id="node4" class="node">
<title>headers</title>
<path fill="#f1f5f9" stroke="#6b7280" stroke-width="1.2" d="M173.89,-208C173.89,-208 72.11,-208 72.11,-208 66.11,-208 60.11,-202 60.11,-196 60.11,-196 60.11,-184 60.11,-184 60.11,-178 66.11,-172 72.11,-172 72.11,-172 173.89,-172 173.89,-172 179.89,-172 185.89,-178 185.89,-184 185.89,-184 185.89,-196 185.89,-196 185.89,-202 179.89,-208 173.89,-208"/>
<text xml:space="preserve" text-anchor="start" x="102" y="-190.5" font-family="Helvetica,sans-Serif" font-weight="bold" font-size="10.00">$headers</text>
<text xml:space="preserve" text-anchor="start" x="71.62" y="-182.4" font-family="Helvetica,sans-Serif" font-size="8.00" fill="#475569">envelope headers · in MPPM</text>
</g>
<!-- headers&#45;&gt;mapping -->
<g id="edge4" class="edge">
<title>headers&#45;&gt;mapping</title>
<path fill="none" stroke="#6b7280" stroke-width="1.1" stroke-dasharray="5,2" d="M186.26,-190C223.23,-190 270.59,-190 310.9,-190"/>
<polygon fill="#6b7280" stroke="#6b7280" stroke-width="1.1" points="310.72,-192.45 317.72,-190 310.72,-187.55 310.72,-192.45"/>
</g>
<!-- shared -->
<g id="node5" class="node">
<title>shared</title>
<path fill="#f8fafc" stroke="#9ca3af" stroke-width="1.2" d="M176.14,-156C176.14,-156 69.86,-156 69.86,-156 63.86,-156 57.86,-150 57.86,-144 57.86,-144 57.86,-132 57.86,-132 57.86,-126 63.86,-120 69.86,-120 69.86,-120 176.14,-120 176.14,-120 182.14,-120 188.14,-126 188.14,-132 188.14,-132 188.14,-144 188.14,-144 188.14,-150 182.14,-156 176.14,-156"/>
<text xml:space="preserve" text-anchor="start" x="104.62" y="-138.5" font-family="Helvetica,sans-Serif" font-weight="bold" font-size="10.00">$shared</text>
<text xml:space="preserve" text-anchor="start" x="69.38" y="-130.4" font-family="Helvetica,sans-Serif" font-size="8.00" fill="#475569">shared, cluster&#45;wide · external</text>
</g>
<!-- shared&#45;&gt;mapping -->
<g id="edge5" class="edge">
<title>shared&#45;&gt;mapping</title>
<path fill="none" stroke="#9ca3af" stroke-width="1.1" stroke-dasharray="1,5" d="M188.66,-150.39C225.4,-157.43 271.81,-166.32 311.35,-173.9"/>
<polygon fill="#9ca3af" stroke="#9ca3af" stroke-width="1.1" points="310.71,-176.27 318.04,-175.18 311.63,-171.46 310.71,-176.27"/>
</g>
<!-- config -->
<g id="node6" class="node">
<title>config</title>
<path fill="#f8fafc" stroke="#9ca3af" stroke-width="1.2" d="M183.27,-104C183.27,-104 62.73,-104 62.73,-104 56.73,-104 50.73,-98 50.73,-92 50.73,-92 50.73,-80 50.73,-80 50.73,-74 56.73,-68 62.73,-68 62.73,-68 183.27,-68 183.27,-68 189.27,-68 195.27,-74 195.27,-80 195.27,-80 195.27,-92 195.27,-92 195.27,-98 189.27,-104 183.27,-104"/>
<text xml:space="preserve" text-anchor="start" x="105.75" y="-86.5" font-family="Helvetica,sans-Serif" font-weight="bold" font-size="10.00">$config</text>
<text xml:space="preserve" text-anchor="start" x="62.25" y="-78.4" font-family="Helvetica,sans-Serif" font-size="8.00" fill="#475569">target component config · external</text>
</g>
<!-- config&#45;&gt;mapping -->
<g id="edge6" class="edge">
<title>config&#45;&gt;mapping</title>
<path fill="none" stroke="#9ca3af" stroke-width="1.1" stroke-dasharray="1,5" d="M195.83,-97.71C212.86,-101.44 230.78,-106.15 247,-112 286.25,-126.15 328.07,-148.91 357.28,-166.2"/>
<polygon fill="#9ca3af" stroke="#9ca3af" stroke-width="1.1" points="355.73,-168.13 363,-169.62 358.24,-163.93 355.73,-168.13"/>
</g>
<!-- global -->
<g id="node7" class="node">
<title>global</title>
<path fill="#f8fafc" stroke="#9ca3af" stroke-width="1.2" d="M172.77,-52C172.77,-52 73.23,-52 73.23,-52 67.23,-52 61.23,-46 61.23,-40 61.23,-40 61.23,-28 61.23,-28 61.23,-22 67.23,-16 73.23,-16 73.23,-16 172.77,-16 172.77,-16 178.77,-16 184.77,-22 184.77,-28 184.77,-28 184.77,-40 184.77,-40 184.77,-46 178.77,-52 172.77,-52"/>
<text xml:space="preserve" text-anchor="start" x="105.75" y="-34.5" font-family="Helvetica,sans-Serif" font-weight="bold" font-size="10.00">$global</text>
<text xml:space="preserve" text-anchor="start" x="72.75" y="-26.4" font-family="Helvetica,sans-Serif" font-size="8.00" fill="#475569">pipeline properties · external</text>
</g>
<!-- global&#45;&gt;mapping -->
<g id="edge7" class="edge">
<title>global&#45;&gt;mapping</title>
<path fill="none" stroke="#9ca3af" stroke-width="1.1" stroke-dasharray="1,5" d="M185.18,-40.61C205.59,-44.44 227.97,-50.48 247,-60 298.83,-85.93 346.97,-134.37 373.66,-164.24"/>
<polygon fill="#9ca3af" stroke="#9ca3af" stroke-width="1.1" points="371.77,-165.81 378.24,-169.44 375.45,-162.56 371.77,-165.81"/>
</g>
<!-- sep -->
<g id="node9" class="node">
<title>sep</title>
<path fill="#fffbeb" stroke="#f59e0b" stroke-width="1.5" d="M717.95,-235C717.95,-235 643.16,-235 643.16,-235 637.16,-235 631.16,-229 631.16,-223 631.16,-223 631.16,-211 631.16,-211 631.16,-205 637.16,-199 643.16,-199 643.16,-199 717.95,-199 717.95,-199 723.95,-199 729.95,-205 729.95,-211 729.95,-211 729.95,-223 729.95,-223 729.95,-229 723.95,-235 717.95,-235"/>
<text xml:space="preserve" text-anchor="start" x="653.93" y="-217.5" font-family="Helvetica,sans-Serif" font-weight="bold" font-size="10.00">SEPARATE</text>
<text xml:space="preserve" text-anchor="start" x="642.68" y="-209.4" font-family="Helvetica,sans-Serif" font-size="8.00" fill="#92400e">mapped payload only</text>
</g>
<!-- mapping&#45;&gt;sep -->
<g id="edge8" class="edge">
<title>mapping&#45;&gt;sep</title>
<path fill="none" stroke="#475569" stroke-width="1.3" d="M473.38,-197.27C520.01,-201.73 578.8,-207.36 621.65,-211.46"/>
<polygon fill="#475569" stroke="#475569" stroke-width="1.3" points="621.39,-213.89 628.59,-212.12 621.85,-209.02 621.39,-213.89"/>
<text xml:space="preserve" text-anchor="middle" x="548.04" y="-208.9" font-family="Helvetica,sans-Serif" font-size="8.00"> delivery: separate </text>
</g>
<!-- com -->
<g id="node10" class="node">
<title>com</title>
<path fill="#fffbeb" stroke="#f59e0b" stroke-width="1.5" d="M725.83,-182.76C725.83,-182.76 635.29,-182.76 635.29,-182.76 629.29,-182.76 623.29,-176.76 623.29,-170.76 623.29,-170.76 623.29,-157.24 623.29,-157.24 623.29,-151.24 629.29,-145.24 635.29,-145.24 635.29,-145.24 725.83,-145.24 725.83,-145.24 731.83,-145.24 737.83,-151.24 737.83,-157.24 737.83,-157.24 737.83,-170.76 737.83,-170.76 737.83,-176.76 731.83,-182.76 725.83,-182.76"/>
<text xml:space="preserve" text-anchor="start" x="652.81" y="-168.5" font-family="Helvetica,sans-Serif" font-weight="bold" font-size="10.00">COMBINED</text>
<text xml:space="preserve" text-anchor="start" x="634.81" y="-160.4" font-family="Helvetica,sans-Serif" font-size="8.00" fill="#92400e">payload + dynamic config,</text>
<text xml:space="preserve" text-anchor="start" x="635.93" y="-152.4" font-family="Helvetica,sans-Serif" font-size="8.00" fill="#92400e">merged in one document</text>
</g>
<!-- mapping&#45;&gt;com -->
<g id="edge9" class="edge">
<title>mapping&#45;&gt;com</title>
<path fill="none" stroke="#475569" stroke-width="1.3" d="M473.38,-183C517.27,-178.95 571.92,-173.92 613.93,-170.05"/>
<polygon fill="#475569" stroke="#475569" stroke-width="1.3" points="613.99,-172.5 620.73,-169.42 613.54,-167.62 613.99,-172.5"/>
<text xml:space="preserve" text-anchor="middle" x="548.04" y="-180.73" font-family="Helvetica,sans-Serif" font-size="8.00"> delivery: combined </text>
</g>
</g>
</svg>
