<?xml version="1.0" encoding="UTF-8" standalone="no"?>
<!DOCTYPE svg PUBLIC "-//W3C//DTD SVG 1.1//EN"
 "http://www.w3.org/Graphics/SVG/1.1/DTD/svg11.dtd">
<!-- Generated by graphviz version 15.0.0 (20260523.1842)
 -->
<!-- Title: header_detail Pages: 1 -->
<svg width="288pt" height="126pt"
 viewBox="0.00 0.00 288.00 126.00" xmlns="http://www.w3.org/2000/svg" xmlns:xlink="http://www.w3.org/1999/xlink">
<g id="graph0" class="graph" transform="scale(1 1) rotate(0) translate(4 121.75)">
<title>header_detail</title>
<!-- Order -->
<g id="node1" class="node">
<title>Order</title>
<path fill="#eff6ff" stroke="#2563eb" stroke-width="1.3" d="M71.79,-117.75C71.79,-117.75 22.5,-117.75 22.5,-117.75 16.5,-117.75 10.5,-111.75 10.5,-105.75 10.5,-105.75 10.5,-93.75 10.5,-93.75 10.5,-87.75 16.5,-81.75 22.5,-81.75 22.5,-81.75 71.79,-81.75 71.79,-81.75 77.79,-81.75 83.79,-87.75 83.79,-93.75 83.79,-93.75 83.79,-105.75 83.79,-105.75 83.79,-111.75 77.79,-117.75 71.79,-117.75"/>
<text xml:space="preserve" text-anchor="start" x="32.14" y="-100.3" font-family="Helvetica,sans-Serif" font-weight="bold" font-size="11.00">Order</text>
<text xml:space="preserve" text-anchor="start" x="22.02" y="-91.2" font-family="Helvetica,sans-Serif" font-size="9.00" fill="#475569">entity · PK id</text>
</g>
<!-- OrderLine -->
<g id="node2" class="node">
<title>OrderLine</title>
<path fill="#eff6ff" stroke="#2563eb" stroke-width="1.3" d="M82.29,-36C82.29,-36 12,-36 12,-36 6,-36 0,-30 0,-24 0,-24 0,-12 0,-12 0,-6 6,0 12,0 12,0 82.29,0 82.29,0 88.29,0 94.29,-6 94.29,-12 94.29,-12 94.29,-24 94.29,-24 94.29,-30 88.29,-36 82.29,-36"/>
<text xml:space="preserve" text-anchor="start" x="20.89" y="-18.55" font-family="Helvetica,sans-Serif" font-weight="bold" font-size="11.00">OrderLine</text>
<text xml:space="preserve" text-anchor="start" x="11.52" y="-9.45" font-family="Helvetica,sans-Serif" font-size="9.00" fill="#475569">entity · FK orderId</text>
</g>
<!-- Order&#45;&gt;OrderLine -->
<g id="edge1" class="edge">
<title>Order&#45;&gt;OrderLine</title>
<path fill="none" stroke="#2563eb" stroke-width="1.6" d="M47.14,-81.45C47.14,-71.9 47.14,-59.77 47.14,-48.75"/>
<polygon fill="#2563eb" stroke="#2563eb" stroke-width="1.6" points="50.65,-48.97 47.15,-38.97 43.65,-48.97 50.65,-48.97"/>
<text xml:space="preserve" text-anchor="middle" x="58.77" y="-55.2" font-family="Helvetica,sans-Serif" font-size="9.00"> &#160;1:N &#160;</text>
</g>
<!-- Product -->
<g id="node3" class="node">
<title>Product</title>
<path fill="#ecfdf5" stroke="#059669" stroke-width="1.3" d="M268.16,-36C268.16,-36 200.12,-36 200.12,-36 194.12,-36 188.12,-30 188.12,-24 188.12,-24 188.12,-12 188.12,-12 188.12,-6 194.12,0 200.12,0 200.12,0 268.16,0 268.16,0 274.16,0 280.16,-6 280.16,-12 280.16,-12 280.16,-24 280.16,-24 280.16,-30 274.16,-36 268.16,-36"/>
<text xml:space="preserve" text-anchor="start" x="213.14" y="-18.55" font-family="Helvetica,sans-Serif" font-weight="bold" font-size="11.00">Product</text>
<text xml:space="preserve" text-anchor="start" x="199.64" y="-9.45" font-family="Helvetica,sans-Serif" font-size="9.00" fill="#475569">lookup · PK code</text>
</g>
<!-- OrderLine&#45;&gt;Product -->
<g id="edge2" class="edge">
<title>OrderLine&#45;&gt;Product</title>
<path fill="none" stroke="#059669" stroke-width="1.4" stroke-dasharray="5,2" d="M94.82,-18C119.39,-18 149.56,-18 175.54,-18"/>
<polygon fill="#059669" stroke="#059669" stroke-width="1.4" points="175.41,-21.5 185.41,-18 175.41,-14.5 175.41,-21.5"/>
<text xml:space="preserve" text-anchor="middle" x="141.21" y="-22.2" font-family="Helvetica,sans-Serif" font-size="9.00" fill="#065f46"> &#160;FK productCode &#160;</text>
</g>
</g>
</svg>
